<?xml version="1.0" encoding="UTF-8"?>
<svg width="460px" height="395px" viewBox="0 0 460 395" version="1.1" xmlns="http://www.w3.org/2000/svg" xmlns:xlink="http://www.w3.org/1999/xlink">
    <!-- Generator: Sketch 63.1 (92452) - https://sketch.com -->
    <title>hero_employee_</title>
    <desc>Created with Sketch.</desc>
    <defs>
        <linearGradient x1="-0.00446143885%" y1="50.0072255%" x2="99.9949839%" y2="50.0072255%" id="linearGradient-1">
            <stop stop-color="#000000" stop-opacity="0" offset="0%"></stop>
            <stop stop-color="#000000" offset="99%"></stop>
        </linearGradient>
        <linearGradient x1="30.392223%" y1="53.5425399%" x2="106.522481%" y2="33.0330332%" id="linearGradient-2">
            <stop stop-color="#000000" stop-opacity="0" offset="0%"></stop>
            <stop stop-color="#000000" offset="99%"></stop>
        </linearGradient>
        <linearGradient x1="25.3309218%" y1="62.7131283%" x2="99.5555639%" y2="14.4697641%" id="linearGradient-3">
            <stop stop-color="#000000" stop-opacity="0" offset="0%"></stop>
            <stop stop-color="#000000" offset="99%"></stop>
        </linearGradient>
        <linearGradient x1="89.2154138%" y1="43.2485835%" x2="-230.721089%" y2="111.47807%" id="linearGradient-4">
            <stop stop-color="#000000" stop-opacity="0" offset="0%"></stop>
            <stop stop-color="#000000" offset="99%"></stop>
        </linearGradient>
        <linearGradient x1="47.129823%" y1="68.7310975%" x2="86.3925098%" y2="-49.5874393%" id="linearGradient-5">
            <stop stop-color="#000000" stop-opacity="0" offset="0%"></stop>
            <stop stop-color="#000000" stop-opacity="0.51" offset="72%"></stop>
            <stop stop-color="#000000" offset="99%"></stop>
        </linearGradient>
        <linearGradient x1="1.31420908%" y1="34.4598338%" x2="245.808526%" y2="116.218837%" id="linearGradient-6">
            <stop stop-color="#000000" stop-opacity="0" offset="0%"></stop>
            <stop stop-color="#000000" offset="99%"></stop>
        </linearGradient>
        <linearGradient x1="0.00246077078%" y1="50.0067929%" x2="100.06952%" y2="50.0067929%" id="linearGradient-7">
            <stop stop-color="#E5C5D5" offset="0%"></stop>
            <stop stop-color="#EAD4D1" offset="42%"></stop>
            <stop stop-color="#F0E9CB" offset="100%"></stop>
        </linearGradient>
        <linearGradient x1="6.73448443%" y1="28.3023887%" x2="120.694265%" y2="70.935214%" id="linearGradient-8">
            <stop stop-color="#000000" stop-opacity="0" offset="0%"></stop>
            <stop stop-color="#000000" offset="99%"></stop>
        </linearGradient>
        <linearGradient x1="50.6102951%" y1="15.9040356%" x2="45.5928367%" y2="184.938036%" id="linearGradient-9">
            <stop stop-color="#000000" stop-opacity="0" offset="0%"></stop>
            <stop stop-color="#000000" offset="99%"></stop>
        </linearGradient>
        <linearGradient x1="-0.011945594%" y1="49.9571773%" x2="99.9474476%" y2="49.9571773%" id="linearGradient-10">
            <stop stop-color="#E5C5D5" offset="0%"></stop>
            <stop stop-color="#EAD4D1" offset="42%"></stop>
            <stop stop-color="#F0E9CB" offset="100%"></stop>
        </linearGradient>
        <linearGradient x1="-0.0122360286%" y1="21.1420887%" x2="89.7359167%" y2="71.1964739%" id="linearGradient-11">
            <stop stop-color="#000000" stop-opacity="0" offset="0%"></stop>
            <stop stop-color="#000000" offset="99%"></stop>
        </linearGradient>
        <linearGradient x1="0.126228273%" y1="49.8790038%" x2="100.119869%" y2="49.8790038%" id="linearGradient-12">
            <stop stop-color="#E5C5D5" offset="0%"></stop>
            <stop stop-color="#EAD4D1" offset="42%"></stop>
            <stop stop-color="#F0E9CB" offset="100%"></stop>
        </linearGradient>
        <linearGradient x1="48.0630114%" y1="50.2429492%" x2="39.1756837%" y2="43.1710528%" id="linearGradient-13">
            <stop stop-color="#FFFFFF" stop-opacity="0" offset="2%"></stop>
            <stop stop-color="#FFFFFF" offset="100%"></stop>
        </linearGradient>
    </defs>
    <g id="Page-1" stroke="none" stroke-width="1" fill="none" fill-rule="evenodd">
        <g id="hero_employee_" transform="translate(230.000000, 197.500000) scale(-1, 1) translate(-230.000000, -197.500000) " fill-rule="nonzero">
            <path d="M260.212842,376.157743 C279.612179,365.432342 296.658189,350.731866 316.14083,340.256864 C340.835535,327.070835 368.707885,321.037507 396.632983,322.833305 C404.390635,323.344535 412.460676,324.419161 419.739333,321.664778 C426.268257,319.18166 431.31854,313.891993 435.619091,308.383227 C460.006235,277.198185 466.774657,233.044591 452.852534,195.954319 C447.812663,182.516268 440.232031,169.871146 438.118201,155.6193 C433.25535,122.900568 458.371401,91.4859952 454.445716,58.642064 C451.738348,36.0331698 434.827707,16.6585891 414.085098,7.43557917 C393.342489,-1.78743073 369.330211,-1.73526438 347.358873,3.79436825 C323.357009,9.81436453 301.291954,21.969123 277.508762,28.8342141 C232.514378,41.7506013 184.37528,34.9376766 137.975147,40.8116071 C91.5750135,46.6855376 40.9263938,72.2366136 31.7421663,118.226464 C26.1920605,145.999826 37.1569036,175.400779 30.0969192,202.829843 C24.1511211,225.897801 6.14711956,244.646386 1.4612892,268.016909 C-11.0342584,330.804322 59.5968245,348.436547 99.4263826,371.598404 C148.148605,399.92473 210.168173,403.837206 260.212842,376.157743 Z" id="Path" fill="#68E1FD" opacity="0.18"></path>
            <path d="M269.507604,250.883407 C269.995837,255.392232 270.463293,260.057253 269.112863,264.420296 C266.72364,272.084259 259.296271,276.915887 252.149377,280.518782 C237.730934,287.787051 222.149043,292.837352 207.117712,298.783171 C202.06918,300.792878 196.418147,303.625212 195.213148,308.925425 C194.672975,311.299587 195.140432,313.85077 194.29901,316.120803 C193.457588,318.390835 190.247718,320.056914 188.668753,318.203401 C188.078129,317.334534 187.78636,316.296256 187.837719,315.246111 L187.18328,303.125388 C186.965133,299.074734 186.746987,294.940777 187.765004,291.004666 C188.783021,287.068554 191.224183,283.299051 194.953449,281.716276 C196.210389,281.195627 197.560819,280.924889 198.838534,280.425065 C203.575429,278.581966 206.473661,273.896119 209.330341,269.668445 C216.05133,259.744863 224.912232,250.487713 236.338952,247.113903 C229.085844,235.921401 226.805235,222.208504 230.043868,209.262677 C231.716324,202.744144 235.102789,196.256849 240.930416,192.914279 C245.504017,190.299952 251.130051,190.36766 255.639721,193.0913 C260.833685,196.454696 261.592003,202.535884 262.96321,208.1589 C266.42239,222.1852 267.970191,236.555129 269.507604,250.883407 Z" id="Path" fill="#3E3E54"></path>
            <path d="M269.507604,250.833489 C269.995837,255.35289 270.463293,260.007664 269.112863,264.370865 C266.72364,272.035102 259.296271,276.866904 252.149377,280.480342 C237.730934,287.780111 222.149043,292.809767 207.117712,298.787039 C202.06918,300.786405 196.418147,303.618841 195.213148,308.929657 C194.672975,311.293491 195.140432,313.855179 194.29901,316.125293 C193.457588,318.395407 190.247718,320.051132 188.668753,318.207966 C188.078129,317.339068 187.78636,316.300753 187.837719,315.250571 L187.18328,303.129413 C186.965133,299.0682 186.746987,294.944507 187.765004,291.008255 C188.783021,287.072002 191.224183,283.302364 194.953449,281.719532 C196.210389,281.188451 197.560819,280.928116 198.838534,280.428275 C203.575429,278.574696 206.473661,273.888681 209.330341,269.671268 C216.05133,259.74733 224.912232,250.489848 236.338952,247.115917 C229.086513,235.91887 226.806057,222.202623 230.043868,209.252919 C231.716324,202.734152 235.102789,196.257038 240.930416,192.914348 C245.504017,190.299927 251.130051,190.367637 255.639721,193.091375 C260.833685,196.454892 261.592003,202.536298 262.96321,208.159515 C266.42239,222.175906 267.970191,236.535938 269.507604,250.833489 Z" id="Path" fill="url(#linearGradient-1)"></path>
            <path d="M244,194.188365 C244.005521,203.524856 241.787156,212.727621 237.529557,221.0306 C235.313798,225.339128 232.5467,229.449443 231.287983,234.102236 C222.726623,264.825276 187.992261,281.88204 162.068921,301.317362 C151.541465,309.204159 139.98415,317.216143 135.271761,329.317578 C134.637201,330.965877 133.992238,332.822821 132.390234,333.646971 C130.091254,334.815385 127.188922,332.90628 126.367115,330.517289 C125.545307,328.128299 126.263088,325.520231 126.960064,323.07908 L130.663398,310.070037 C130.968388,308.58533 131.601096,307.187979 132.515065,305.980587 C133.620369,304.945307 134.880472,304.089937 136.249608,303.445545 C145.799217,297.874712 148.805575,286.117542 153.778029,276.436394 C159.486689,265.452098 168.326229,256.420312 179.170835,250.491335 C182.04196,248.916062 185.121136,247.507705 187.326493,245.118715 C189.531849,242.729725 190.759359,239.276643 191.851634,236.073936 C195.509655,225.392759 199.707342,214.905195 204.428407,204.651934 C206.311282,200.552051 217.192427,181.700936 220.37563,178.414771 C228.54169,170.016792 236.093995,185.540012 244,194.188365 Z" id="Path" fill="#3E3E54"></path>
            <path d="M282.950981,114.845583 C282.950981,116.167528 282.857136,117.531108 282.857136,118.905098 C282.857136,123.308109 282.440049,128.158709 279.311893,131.260594 C276.924067,133.62344 273.462241,134.445752 270.271522,135.486653 C247.164876,143.022777 232.399979,165.287653 211.941838,178.382189 C207.604128,181.150986 202.55737,183.586695 197.541893,183.014199 C196.932785,182.950475 196.32963,182.839103 195.73799,182.681111 C192.442999,181.827572 189.679794,179.63127 186.530784,178.37178 C180.274472,175.884026 173.23612,177.268425 166.938099,179.516771 C160.640079,181.765118 154.540174,184.825367 147.908483,185.762178 C141.276792,186.698989 133.706655,184.929457 130.005003,179.360636 C128.002984,176.321205 127.398207,172.58437 125.834129,169.305531 C120.12003,157.470485 103.686784,154.566371 96.4294616,143.678545 C96.3043354,143.491183 96.1687819,143.293411 96.0540829,143.09564 C94.9711639,141.343191 94.169034,139.432673 93.6766843,137.433138 C93.5276484,136.89553 93.4092835,136.349915 93.3221599,135.798923 C92.6359448,131.839096 93.050694,127.767237 94.5212864,124.026331 L94.7089758,123.537108 C97.4853854,117.251995 102.832447,112.460159 109.390455,110.380117 C118.45168,107.538457 128.232382,110.03662 137.731549,109.859667 C147.679085,109.672304 157.637049,106.518374 167.428177,108.225452 C175.060878,109.547396 182.026239,113.731819 189.012454,117.166793 C194.820397,120.008453 200.690904,122.371298 207.093196,122.163118 C212.78644,122.006983 218.219005,119.800273 223.338753,117.281292 C232.723222,112.680509 241.638467,106.934734 251.492158,103.312398 C258.864179,100.595646 267.049521,99.1487938 274.859484,100.533192 C283.13867,102.052908 283.149098,107.871545 282.950981,114.845583 Z" id="Path" fill="#68E1FD"></path>
            <path d="M268.392243,125.217636 C266.220523,127.789064 262.864228,128.928437 259.778099,130.245509 C245.989235,136.151431 242.892716,153.879649 232.626402,165.137486 C226.29828,172.067798 205.890346,180.440618 205.609789,178.203685 C205.183757,175.120062 200.414286,181.904032 197.535977,183.001593 C196.928983,182.937599 196.327921,182.825757 195.738333,182.667098 C192.454776,181.809956 189.701159,179.604381 186.563076,178.339573 C180.328472,175.841316 173.314544,177.23156 167.038377,179.489399 C160.762209,181.747238 154.683471,184.820408 148.074792,185.761174 C141.466112,186.70194 133.922243,184.924937 130.233436,179.332604 C128.238363,176.28034 127.635684,172.527728 126.077034,169.235046 C122.294708,161.322156 113.774083,157.391844 106.334123,152.416235 C102.57526,150.120994 99.3136325,147.088755 96.7432254,143.499861 C96.6185333,143.311708 96.4834503,143.113102 96.3691492,142.914496 C95.2899879,141.154648 94.4906413,139.236064 94,137.228086 C96.3533806,134.667114 99.2324618,132.651868 102.437496,131.322164 C111.186723,127.674081 121.141306,129.325649 130.493211,128.311712 C140.354275,127.266416 149.965955,123.25248 159.83741,124.130528 C173.886049,125.343072 186.417602,136.255961 200.362331,134.635752 C206.015038,133.977216 211.21054,131.290805 216.073531,128.363977 C225.020187,122.949344 233.343382,116.426698 242.788806,111.942378 C249.86508,108.597431 257.866154,106.40231 265.752927,107.14447 C267.425616,107.253915 269.053905,107.73211 270.522399,108.545167 C270.605527,109.862239 270.657482,111.231577 270.782174,112.600915 C271.228987,116.949346 271.228987,121.84133 268.392243,125.217636 Z" id="Path" fill="url(#linearGradient-2)"></path>
            <path d="M241.064945,155.246835 C234.746608,162.19653 216.331093,174.481664 209.027137,180.163014 C206.578652,182.081255 200.945061,181.892576 198.060828,182.993206 C197.454772,182.929034 196.85464,182.816879 196.265964,182.657776 C192.987483,181.798236 190.238125,179.586493 187.104894,178.318147 C180.879931,175.812902 173.876848,177.207034 167.610386,179.471189 C161.343924,181.735343 155.274585,184.817108 148.676125,185.760506 C142.077664,186.703904 134.54546,184.92193 130.862357,179.313956 C128.870369,176.253155 128.268622,172.490046 126.712382,169.188155 C122.935904,161.253133 114.428455,157.311827 107,152.322302 C108.263249,151.322158 109.990522,151.166123 111.409349,151.923979 C118.734055,156.976397 128.64212,155.299246 136.993945,152.290856 C145.34577,149.282465 153.68722,145.100069 162.526666,145.687072 C172.486607,146.336968 181.097805,152.961716 190.839871,155.246835 C197.967356,156.888659 205.429499,156.153118 212.108494,153.150396 C215.750097,151.515173 231.883125,135.970077 235.099355,138.339053 C236.282098,139.209075 248.586774,131.756234 248.991397,133.181813 C249.302645,134.282444 241.064945,154.135722 241.064945,155.246835 Z" id="Path" fill="url(#linearGradient-3)"></path>
            <path d="M357.777477,65 C359.020561,66.3301218 359.348414,68.2766081 358.609853,69.9418656 C357.859374,71.5520918 356.798561,72.9977341 355.488443,74.1956233 C344.657151,85.3200337 329.955311,95.5478188 319.144829,106.661803 C313.484672,112.489868 312.194489,113.615863 306.201383,119.1103 C302.278811,122.707228 298.200169,126.189471 294.943498,130.401525 C291.978159,134.259099 289.314556,144.226237 287.129569,148.573828 L276.173421,170.468169 C272.427729,177.933097 268.661228,185.439728 263.687782,192.143567 C262.82354,193.502741 261.641361,194.630065 260.243826,195.427718 C258.867399,195.9756 257.396314,196.244903 255.915471,196.220084 C248.257613,196.657971 240.412469,197.929928 233.025133,195.813475 C225.637796,193.697022 218.885147,186.753388 220.15452,179.132073 C220.763672,176.536037 221.819965,174.066336 223.27593,171.833959 L236.521112,148.427866 C240.516516,141.379973 244.501516,134.33208 248.632182,127.357169 C251.868043,121.904435 255.280785,116.389146 260.160589,112.343906 C264.468134,108.76783 269.680888,106.526267 274.82081,104.326407 C285.71453,99.6556142 296.670678,95.5165412 306.742427,89.2610151 C316.975223,82.8823787 327.653877,77.2516949 338.695258,72.4127984 C344.951951,69.6812187 351.31269,67.2102859 357.777477,65 Z" id="Path" fill="#FFFFFF"></path>
            <path d="M304.455272,104.557093 C305.813607,103.269927 306.033031,101.218835 306.879378,99.5549383 C308.080983,97.1899031 310.473743,95.7353018 312.709772,94.3225595 C321.424142,88.726097 329.271177,81.8789405 336,74 C326.355819,76.4592181 317.902793,82.1415815 309.66919,87.7297621 L295.929105,97.0433965 C290.474866,100.747921 284.937037,104.515233 280.736646,109.601106 C280.379403,109.973799 280.130175,110.436843 280.015683,110.940595 C279.838055,112.20683 281.206839,113.033546 282.220366,113.828868 C286.525245,117.188055 289.712108,119.186824 291.895894,112.949828 C292.804934,110.344104 293.787115,108.763925 296.367952,107.424436 C298.948789,106.084947 302.396871,106.503537 304.455272,104.557093 Z" id="Path" fill="url(#linearGradient-4)"></path>
            <path d="M283.122303,122.913622 C284.463621,123.37081 285.731896,124.010478 286.88949,124.813646 C287.436682,125.209733 288.029678,125.54187 288.656311,125.803242 C289.288883,126.065586 290.003797,126.065586 290.636369,125.803242 C290.768504,125.740585 290.878199,125.640576 290.951148,125.516259 C291.016284,125.340386 291.016284,125.147855 290.951148,124.971982 C290.151998,122.629014 289.132242,120.363088 287.904905,118.203147 C287.769306,117.93151 287.583417,117.686604 287.356581,117.480742 C286.976302,117.235153 286.533155,117.098048 286.077159,117.084904 C284.75535,116.947176 283.420795,116.977114 282.106889,117.173967 C281.352549,117.254982 280.642782,117.562798 280.07606,118.054708 C279.670044,118.51708 279.399885,119.077853 279.294191,119.677645 C278.996231,120.696846 278.923552,121.766062 279.080954,122.814663 C279.710511,122.814663 280.390839,122.547472 281.061012,122.547472 C281.762343,122.574583 282.456258,122.697844 283.122303,122.913622 L283.122303,122.913622 Z" id="Path" fill="url(#linearGradient-5)"></path>
            <path d="M265.679204,113.65928 C264.592947,116.296187 264.042132,119.120406 264.058434,121.969529 C263.82172,124.047108 264.098073,126.150698 264.863591,128.098338 C264.919548,128.250225 265.017383,128.383414 265.145918,128.482687 C265.365197,128.58321 265.61274,128.605232 265.846509,128.545014 C267.155132,128.369396 268.48533,128.439873 269.767726,128.75277 C269.854168,128.767199 269.934285,128.806995 269.99777,128.867036 C270.062871,128.939288 270.103153,129.030237 270.112793,129.126731 L270.593795,131.59903 C272.434153,140.948061 269.140331,151.522853 261.475659,157.267313 C258.887628,158.99718 256.122051,160.449223 253.225419,161.59903 C248.185348,163.915512 243.249843,166.792936 239.537758,170.854571 C235.825673,174.916205 233.42066,180.515235 234.121251,186 C241.099328,182.483894 247.285734,177.596296 252.30524,171.633657 C255.870933,167.385042 258.861515,162.575485 263.159168,159.064404 C265.700117,156.986842 268.669785,155.397507 270.85521,152.945983 C275.037841,148.271468 275.550213,141.519391 275.863911,135.286704 C276.29263,126.560942 276.104412,116.41205 269.213527,111 C268.512936,111.4259 266.05564,112.859418 265.679204,113.65928 Z" id="Path" fill="url(#linearGradient-6)"></path>
            <path d="M367.179272,53.5248026 C369.1337,52.902875 371.428028,52.654104 373.106287,53.80467 C374.092371,54.559419 374.830794,55.5790625 375.230665,56.7380951 C376.292854,59.4123837 376.420317,62.7189653 374.550864,64.9475391 C373.301402,66.2241006 371.767687,67.2029777 370.068426,67.808406 C366.60817,69.4991629 362.967728,70.813122 359.212854,71.7265497 C356.93977,72.2033608 353.477033,72.3173809 352.27676,69.840036 C351.214571,67.6425586 353.466411,65.2170411 354.698551,63.5482021 C357.89574,59.2569018 361.900192,55.2351035 367.179272,53.5248026 Z" id="Path" fill="url(#linearGradient-7)"></path>
            <path d="M213.147984,133.412924 C207.143189,136.756964 200.99219,140.529458 197.54596,146.465128 C194.329478,152.003694 193.90131,158.712673 194.016184,165.118598 C194.06199,172.183569 194.913392,179.22023 196.553863,186.091996 C196.741839,186.854855 197.055133,187.722215 197.796595,187.962568 C198.351682,188.064513 198.924823,187.956512 199.404836,187.659514 C204.185815,185.303631 207.699253,180.974738 209.022951,175.809074 C209.472005,173.980303 209.639095,172.099281 209.973275,170.260059 C210.850713,166.182031 212.141911,162.204296 213.826787,158.388719 C214.410407,156.666539 215.286553,155.058016 216.416682,153.633913 C217.652847,152.402498 219.090349,151.391684 220.667032,150.645178 C229.334824,145.900822 238.08616,141.302767 246.921042,136.851015 C250.214367,135.352083 253.322823,133.475939 256.184091,131.260199 C259.066468,129.013136 261.039686,125.798939 261.739832,122.210392 C262.272431,118.6678 264.945871,110.715257 260.371783,111.00786 C255.797696,111.300464 246.419772,115.292411 242.294739,117.089832 C232.081365,121.583385 222.839202,127.98931 213.147984,133.412924 Z" id="Path" fill="#FFFFFF"></path>
            <path d="M262.680762,117.360948 C262.377917,119.147767 261.918429,120.965934 261.740899,122.230291 C261.034871,125.813351 259.062617,129.022055 256.185265,131.26888 C253.324052,133.484433 250.215656,135.360416 246.922393,136.859221 C238.101605,141.310596 229.350437,145.90826 220.668888,150.652213 C219.093773,151.401297 217.656723,152.411727 216.418619,153.640694 C215.278731,155.05817 214.401617,156.668363 213.828774,158.395096 C212.145489,162.210945 210.854369,166.188181 209.975336,170.265428 C209.641163,172.104493 209.474076,173.985356 209.014587,175.813972 C207.676761,180.96886 204.172455,185.29091 199.407099,187.663405 C198.928345,187.963638 198.352622,188.068378 197.798889,187.955984 C197.057442,187.726101 196.754597,186.848365 196.566625,186.09602 C194.92023,179.21151 194.065329,172.16132 194.018552,165.082607 C193.893237,158.666776 194.331839,151.979265 197.548259,146.430721 C201.004866,140.485106 207.155747,136.712932 213.139541,133.379626 C222.872345,127.956473 232.083001,121.551091 242.296179,117.099717 C246.473348,115.312897 255.871977,111.342188 260.372876,111.007812 C263.328223,110.819726 263.265566,114.058989 262.680762,117.360948 Z" id="Path" fill="#FFFFFF"></path>
            <path d="M256.140547,112.691461 C258.536529,115.130911 261.148168,117.337548 263.941929,119.283036 C266.751552,121.255578 270.128343,122.200284 273.526782,121.964536 C274.121273,121.889753 274.830489,121.676087 274.976504,121.077825 C275.122519,120.479562 274.559318,119.913349 274.079554,119.518068 C271.47214,117.381415 269.35492,114.251218 269.334061,110.821889 C269.334061,109.176666 269.761677,107.413928 268.969023,105.98237 C267.926058,104.198265 265.589815,103.9205 263.576891,104.016649 C261.561316,104.112058 259.556151,104.369245 257.57984,104.785844 C255.911095,105.138392 242.45684,111.259903 244.146444,111.687234 C244.428045,111.762017 250.91529,107.745109 256.140547,112.691461 Z" id="Path" fill="#68E1FD"></path>
            <path d="M256.627454,107.887766 C255.965182,107.6705 255.339253,107.354265 254.770724,106.949699 C254.193888,106.536916 253.904864,105.827547 254.028033,105.126863 C254.141185,104.755697 254.349792,104.42109 254.632796,104.156816 C256.669893,102.024844 259.725539,101.204035 262.632647,100.649723 C266.823551,99.8502334 271.438849,99.4238391 275.109869,101.59845 C275.576704,101.875606 276.075368,102.312661 275.990489,102.856313 C275.913545,103.157686 275.737897,103.424276 275.491825,103.613163 C273.953392,105.062904 272.117882,106.10757 270.50518,107.461372 C268.892478,108.815174 268.160396,111.011105 266.621963,112.364907 C263.725465,114.912613 259.481512,109.049691 256.627454,107.887766 Z" id="Path" fill="url(#linearGradient-8)"></path>
            <path d="M263,117 C262.69978,118.793136 262.244273,120.617731 262.068281,121.886559 C261.368371,125.482285 259.413208,128.702334 256.560789,130.957102 C253.72437,133.180487 250.642909,135.063103 247.378184,136.567207 C238.633832,141.034318 229.958497,145.648236 221.352177,150.408961 C219.790711,151.160694 218.366114,152.174696 217.138739,153.408008 C216.008728,154.830495 215.139215,156.44638 214.571336,158.179218 C212.902638,162.008557 211.622705,165.999854 210.75129,170.091516 C210.420012,171.937083 210.254373,173.824595 209.798866,175.659676 C209.12984,178.368212 207.846694,180.881489 206.051287,183 C205.405844,178.452874 205.059998,173.867264 205.016044,169.273594 C204.902167,162.845567 205.326617,156.113441 208.515165,150.555767 C211.931467,144.599619 218.029047,140.814109 223.981694,137.448046 C233.630158,132.016206 242.750648,125.588179 252.875324,121.131554 C255.163211,120.07245 259.159249,118.352717 263,117 Z" id="Path" fill="url(#linearGradient-9)"></path>
            <path d="M186.72729,199.208296 C189.574518,195.456685 193.923315,193.225557 198.559121,193.138037 C200.670294,192.831149 202.822278,193.037642 204.841235,193.740832 C207.958291,195.076928 209.990662,198.198128 209.998964,201.66178 C210.022057,202.829035 209.658411,203.969828 208.967418,204.897842 C208.262313,205.839459 207.075434,206.256165 205.955305,205.955378 C205.627539,205.869679 205.361584,205.624683 205.243538,205.299706 C205.197684,205.112251 205.197684,204.91609 205.243538,204.728636 C205.589195,203.112338 205.478267,201.428514 204.923759,199.874544 C204.350095,198.299294 203.058355,197.113366 201.46808,196.701934 C200.04463,196.587442 198.612497,196.712473 197.228427,197.072072 C195.165335,197.717169 191.627133,199.187145 190.420224,200.974382 C189.213316,202.761618 189.120476,205.807323 187.274009,207.150394 C186.025839,208.0493 184.02464,208.662671 183.147826,206.706229 C182.271012,204.749787 185.530697,200.593668 186.72729,199.208296 Z" id="Path" fill="#3E3E54"></path>
            <path d="M290.929237,121.499364 C291.03111,121.972256 291.071859,122.57412 290.705119,122.842809 C290.365282,123.052397 289.944735,123.052397 289.604898,122.842809 C287.893445,122.015247 286.691353,120.134424 284.847466,119.715269 C283.718537,119.618688 282.584049,119.618688 281.455121,119.715269 C280.324339,119.650783 279.030562,118.919949 279,117.72697 C279,116.791932 279.713106,116.061098 280.385462,115.448487 C281.587554,114.373731 282.687774,113.159257 283.849118,112.030763 C285.295703,110.63358 285.570758,110.59059 286.772851,112.3102 C288.717473,115.055179 290.129882,118.177811 290.929237,121.499364 Z" id="Path" fill="#FFFFFF"></path>
            <path d="M272.536001,120.553831 C272.362152,120.613504 272.209482,120.717826 272.09525,120.855001 C272.015469,121.002233 271.984744,121.168746 272.0071,121.332719 C272.126863,122.629382 272.647931,123.864368 273.505653,124.884448 C274.310024,125.922965 275.257639,126.878401 275.995897,128 C278.344218,126.921969 279.875866,124.71673 279.984694,122.256999 C280.074711,121.327929 279.765046,120.403711 279.125229,119.691862 C277.450375,118.030234 274.221874,119.785328 272.536001,120.553831 Z" id="Path" fill="#68E1FD"></path>
            <path d="M273.971676,139.901702 C273.635698,143.551165 272.102434,146.985383 269.612461,149.665509 C267.721765,151.426403 265.483335,152.768402 263.042502,153.604377 C258.029405,155.532129 252.663419,156.344911 247.473877,157.595346 C242.284336,158.84578 236.991004,160.606808 232.880887,164.087183 C227.369594,168.765891 224.577621,175.945467 223,183 L232.247763,181.957972 C232.796072,181.934183 233.333401,181.795769 233.825383,181.55158 C234.373476,181.15363 234.812594,180.623163 235.102011,180.009378 C238.412938,174.330323 242.647604,169.057659 248.12776,165.42098 C253.203131,162.086488 259.119208,160.30462 264.547469,157.605766 C269.975729,154.906912 275.248303,150.853421 277.054263,145.038902 C277.669977,142.816818 277.977329,140.52006 277.967623,138.213616 C278.050655,135.160472 277.967623,132.096909 277.791178,129.043765 C277.79109,126.946858 277.307985,124.878379 276.379623,123 C275.154891,125.625912 273.649924,127.835012 273.930159,130.752692 C274.27543,133.791767 274.289352,136.859595 273.971676,139.901702 L273.971676,139.901702 Z" id="Path" fill="#68E1FD"></path>
            <path d="M200.710684,181.163646 C199.34249,182.096856 198.305549,183.417106 197.741911,184.943535 C196.166426,188.173056 194.526634,191.672569 195.126819,195.203235 C195.248766,196.146687 195.646675,197.036662 196.273601,197.76816 C197.29505,198.716031 198.711446,199.153036 200.110499,198.951972 C201.488273,198.74068 202.816413,198.294153 204.033137,197.633164 C206.369572,196.501274 208.813182,195.026702 209.670589,192.63831 C210.399386,190.561448 209.777765,188.339205 209.166863,186.251958 C208.759594,184.891614 208.095104,180.893654 206.73397,180.166752 C205.61934,179.605999 201.782443,180.592508 200.710684,181.163646 Z" id="Path" fill="url(#linearGradient-10)"></path>
            <path d="M222.815028,201.022279 C223.607663,200.951301 224.406301,201.050381 225.157673,201.312912 C225.85516,201.661959 226.445945,202.192595 226.868012,202.849115 C228.490304,205.296763 229.222311,208.228763 228.941149,211.152919 C228.644677,214.051905 228.018683,216.907525 227.075325,219.664318 L220.855912,240.423828 C220.399632,242.495244 219.462092,244.429766 218.119371,246.070414 C215.76636,248.520036 212.01398,248.810669 208.6244,248.893707 C194.506333,249.256999 180.3779,248.634214 166.280564,247.855732 C162.931531,247.84112 159.606628,247.287386 156.43316,246.215731 C154.567336,245.468388 152.722244,244.13978 152.183228,242.250664 C151.975824,241.330748 151.944169,240.379835 152.089937,239.448131 C152.468604,236.574746 153.029484,233.728402 153.769178,230.926352 C155.344763,224.418246 156.941079,217.847861 159.802009,211.786084 C160.628013,209.774435 161.892311,207.972938 163.502559,206.513169 C164.531981,205.706184 165.683165,205.068494 166.912871,204.624054 C172.821313,202.350887 179.123652,203.804053 185.270505,203.212407 C193.3281,202.437385 201.392605,201.866499 209.464021,201.499747 C213.893625,201.257553 218.343961,201.098397 222.815028,201.022279 Z" id="Path" fill="#3E3E54"></path>
            <path d="M221.806946,202.020443 C222.59949,201.953224 223.397326,202.052201 224.149525,202.311054 C224.849927,202.659821 225.444114,203.190272 225.87018,203.847144 C227.486973,206.297014 228.21847,209.226837 227.943259,212.150329 C227.643257,215.049478 227.013806,217.904875 226.067122,220.661094 L219.847886,241.419057 C219.391619,243.490319 218.454106,245.424697 217.111423,247.065223 C214.758478,249.514663 211.006206,249.805274 207.616722,249.898685 C193.499056,250.251571 179.381391,249.628832 165.27409,248.860787 C161.925152,248.846176 158.600345,248.292483 155.426967,247.220908 C153.571561,246.473621 151.716156,245.145112 151.177155,243.256137 C150.973202,242.335632 150.945066,241.384794 151.094232,240.453812 C151.470387,237.581017 152.027777,234.734945 152.763061,231.932668 C154.3386,225.425046 155.934871,218.855151 158.795719,212.793826 C159.624151,210.783672 160.888057,208.982816 162.496165,207.521303 C163.523467,206.71381 164.675293,206.0793 165.906379,205.642707 C171.814654,203.359332 178.116813,204.812389 184.273856,204.220787 C192.317402,203.445823 200.378223,202.874979 208.456319,202.508255 C212.885797,202.272998 217.336006,202.110394 221.806946,202.020443 Z" id="Path" fill="url(#linearGradient-11)"></path>
            <path d="M280.483207,96.0760035 C280.814823,95.7132483 281.066444,95.2834706 281.221425,94.8151 C281.309649,94.3712114 281.309649,93.9140248 281.221425,93.4701362 C280.763938,90.6225959 279.838566,87.806578 280.02572,84.9170075 C280.273174,81.82754 281.670152,78.9476813 283.935156,76.8577327 C286.19837,74.8023964 289.034324,73.5033472 292.055555,73.1380674 C294.01377,72.7860247 296.032243,73.1118076 297.784543,74.06273 C300.092774,75.5022615 301.153313,78.2657416 301.766762,80.9556691 C302.38021,83.6455965 302.754518,86.4405993 304.241352,88.7207331 C304.646852,89.3406773 305.166724,90.0551893 304.948377,90.8222389 C304.812085,91.1385074 304.629856,91.4324525 304.407711,91.6943638 C302.8273,94.0270353 304.709236,97.5995952 303.097634,99.9112516 C302.688826,100.450813 302.166855,100.892189 301.56921,101.203678 C299.011441,102.611687 295.902607,102.412044 293.126491,103.305183 C290.473624,104.279413 288.126177,105.951632 286.326567,108.149154 C284.455028,110.25066 282.916207,112.656884 281.221425,114.916003 C279.892306,117.176205 277.314786,118.365541 274.754219,117.900141 C273.934591,118.056097 273.087299,117.873841 272.401566,117.394076 C271.715834,116.914312 271.248783,116.177003 271.104719,115.346812 C270.482925,113.791282 270.110866,112.145403 270.00259,110.471318 C269.919411,107.161447 271.853334,106.026634 273.828847,103.851575 C276.14401,101.315758 278.36213,98.7239008 280.483207,96.0760035 Z" id="Path" fill="url(#linearGradient-12)"></path>
            <path d="M296.003062,68.1564211 C293.792512,67.0704361 291.283038,66.7371897 288.862513,67.2081895 C287.403399,67.3585212 285.981944,67.7605233 284.662191,68.3960841 C280.944905,70.2925474 279.065261,74.57522 275.557992,76.8259676 C274.287394,77.6491577 272.79628,78.2014245 271.798703,79.3267983 C270.821878,80.4160782 270.431289,81.9044166 270.748622,83.3281275 C270.96156,83.8718793 271.054656,84.4545841 271.021643,85.0370285 C270.806065,85.6506221 270.446072,86.2043238 269.971563,86.6521483 C268.740865,88.2518486 268.673306,90.4516155 269.80355,92.1227155 C271.252661,94.2067411 274.119381,94.7381676 275.820512,96.5721102 C276.692079,97.5099217 277.395633,98.8436981 278.676731,99 C279.56494,98.9967585 280.416655,98.6489667 281.049913,98.0309281 C282.803548,96.6554712 284.420672,94.7902683 284.557183,92.570781 C284.557183,91.8101117 284.462675,91.0390222 284.557183,90.2783529 C284.567194,89.4989017 284.984779,88.7806476 285.659767,88.3818896 C286.519846,88.0966164 287.468576,88.337071 288.085454,88.9966771 C288.736504,89.5906244 289.198539,90.3617139 289.839088,90.9660813 C289.885748,91.0242278 289.9537,91.0616889 290.028103,91.0702826 C290.101239,91.0654668 290.169353,91.0316717 290.217117,90.9765014 C290.870256,90.208113 291.032634,89.1406227 290.63715,88.2151675 C290.233776,87.3123907 289.958144,86.3585992 289.818087,85.3808927 C289.887189,84.0719288 290.522645,82.8563653 291.561221,82.0464517 C292.537796,81.1920012 293.661382,80.5459533 294.711463,79.7019229 C296.349588,78.3056258 298.428748,75.7318542 298.911785,73.5853078 C299.394822,71.4387614 297.819701,69.1984339 296.003062,68.1564211 Z" id="Path" fill="#3E3E54"></path>
            <path d="M274.648469,116.390906 C275.421516,117.170591 276.387823,118.255829 275.838554,119.225167 C275.289284,120.194506 274.16023,119.931099 273.214265,119.836272 C271.72979,119.620371 270.22566,120.055708 269.064228,121.037409 C267.609681,122.449271 267.314703,124.956908 265.585521,126 C264.7784,120.868661 264.805905,115.633593 265.666894,110.511658 C265.779855,109.73802 265.970769,108.978774 266.236507,108.246356 C266.82961,106.99622 267.628119,105.862476 268.596332,104.895817 C269.944874,103.842807 271.764178,103.706725 273.24478,104.548119 C273.24478,104.548119 270.966329,108.046166 271.09856,109.14194 C271.469678,111.900285 272.718993,114.451404 274.648469,116.390906 L274.648469,116.390906 Z" id="Path" fill="#FFFFFF"></path>
            <path d="M191,121.78455 C191,124.380505 187.716917,125.865391 185.144819,125.356584 C182.572722,124.847777 180.439763,123.155214 178.087236,122.033762 C170.350033,118.357889 161.274503,121.317278 152.711301,121.400348 C142.255621,121.51457 132.029966,117.174134 121.532464,117.361042 C114.189055,117.50994 107.061585,119.85496 101.081155,124.089758 C100.44826,124.447194 99.8588681,124.875748 99.3246004,125.366968 C99.042297,125.678482 96.1878965,130.974231 93.3230402,136 C92.63495,132.049756 93.0508325,127.987751 94.5254434,124.255899 L94.7136456,123.76786 C97.5023614,117.499693 102.867882,112.7232 109.445698,110.653094 C118.531684,107.818311 128.339112,110.310428 137.864236,110.133903 C147.838954,109.946995 157.824128,106.800697 167.642012,108.503643 C175.295569,109.822389 182.279963,113.996685 189.285269,117.423345 C189.661673,118.077526 189.996255,118.74209 190.330836,119.417039 C190.726241,120.147833 190.954708,120.956153 191,121.78455 L191,121.78455 Z" id="Path" fill="url(#linearGradient-13)"></path>
        </g>
    </g>
</svg>