<?xml version="1.0" encoding="UTF-8"?>
<svg width="200px" height="163px" viewBox="0 0 200 163" version="1.1" xmlns="http://www.w3.org/2000/svg" xmlns:xlink="http://www.w3.org/1999/xlink">
    <!-- Generator: Sketch 63.1 (92452) - https://sketch.com -->
    <title>Fill 1</title>
    <desc>Created with Sketch.</desc>
    <g id="Page-1" stroke="none" stroke-width="1" fill="none" fill-rule="evenodd">
        <g id="Desktop-HD" transform="translate(-1043.000000, -561.000000)" fill="#38A0CD">
            <g id="twitter-2012-positive" transform="translate(1043.000000, 561.000000)">
                <path d="M200,19.704 C192.642,22.968 184.733,25.174 176.434,26.165 C184.904,21.087 191.411,13.046 194.475,3.464 C186.546,8.167 177.765,11.581 168.418,13.421 C160.934,5.446 150.27,0.464 138.468,0.464 C115.808,0.464 97.435,18.835 97.435,41.495 C97.435,44.711 97.798,47.843 98.498,50.846 C64.396,49.135 34.161,32.799 13.924,7.974 C10.392,14.034 8.368,21.083 8.368,28.603 C8.368,42.839 15.612,55.398 26.622,62.756 C19.896,62.543 13.569,60.697 8.037,57.624 C8.033,57.795 8.033,57.966 8.033,58.14 C8.033,78.02 22.177,94.604 40.948,98.374 C37.505,99.312 33.88,99.814 30.138,99.814 C27.494,99.814 24.923,99.556 22.418,99.077 C27.639,115.378 42.792,127.242 60.748,127.572 C46.705,138.578 29.013,145.138 9.788,145.138 C6.476,145.138 3.21,144.943 0,144.564 C18.159,156.206 39.727,163 62.899,163 C138.372,163 179.645,100.476 179.645,46.253 C179.645,44.474 179.604,42.705 179.525,40.945 C187.543,35.159 194.499,27.933 200,19.704" id="Fill-1"></path>
            </g>
        </g>
    </g>
</svg>