<?xml version="1.0" encoding="UTF-8"?>
<svg width="199px" height="295px" viewBox="0 0 199 295" version="1.1" xmlns="http://www.w3.org/2000/svg" xmlns:xlink="http://www.w3.org/1999/xlink">
    <!-- Generator: Sketch 63.1 (92452) - https://sketch.com -->
    <title>5e53523cf3aa4b6f462b2ec0_peep-17</title>
    <desc>Created with Sketch.</desc>
    <g id="Page-1" stroke="none" stroke-width="1" fill="none" fill-rule="evenodd">
        <g id="Desktop-HD" transform="translate(-1097.000000, -36.000000)" fill-rule="nonzero">
            <g id="5e53523cf3aa4b6f462b2ec0_peep-17">
                <g transform="translate(1196.500000, 188.000000) scale(-1, 1) translate(-1196.500000, -188.000000) translate(1097.000000, 36.000000)">
                    <g id="body/Shirt-and-Coat" transform="translate(0.000000, 104.000000)">
                        <path d="M196.804646,178.092039 C196.393705,170.454046 195.888724,162.82198 195.284293,155.196617 C194.07981,140.007748 192.502774,124.807022 189.878418,109.792646 C187.28936,94.9785366 183.665862,80.5734676 178.445491,66.4570722 C176.023643,59.9077906 173.400833,54.3206682 169.595955,48.4332738 C165.998222,42.8667711 161.407274,39.0949416 155.68759,35.7347296 C150.534206,32.7072655 144.547346,27.4544374 139.604715,24.0640695 C137.541249,22.6487958 133.2958,22.7431302 131.880823,20.6494735 C130.027851,17.9078478 131.229243,13.7115135 129.361328,10.9789089 C127.226237,7.85453296 124.234996,5.42735526 120.861929,3.66412677 C117.180462,1.1701933 112.844323,0.0412734512 108.49659,0.196693232 C102.085392,-0.192242854 95.6283322,1.84960718 91.5122209,7.06995943 C89.4582876,9.67523841 88.2589574,12.681052 88.093035,16.0093036 C88.049751,16.8750666 88.3277482,17.5575734 88.7853229,18.0503804 C88.5140244,18.4132843 88.244014,18.776446 87.9758073,19.1416696 C87.1338285,17.8941874 85.1659482,17.2312691 83.8545432,18.1728089 C79.5642649,21.2536261 74.9274562,23.7032276 70.0335194,25.4989318 C68.8885521,24.9568956 67.5024305,25.2079385 66.521582,26.0927745 C66.1235228,26.4515546 65.7012452,26.758528 65.2599021,27.0191074 C63.4453195,27.5111412 61.6026538,27.9222433 59.7326778,28.240042 C59.147312,28.3392735 58.6513483,28.6717637 58.2751889,29.1199809 C57.7179062,28.5988221 56.9519323,28.3485523 56.0965562,28.6748566 C46.2197956,32.4412734 36.8925884,38.2923259 29.8030144,46.2195084 C21.9484971,55.0016285 17.8231106,65.926119 14.6824373,77.1184059 C11.2825748,89.2341902 9.10986768,101.651535 7.28497939,114.089758 C5.43587256,126.692679 3.61459122,139.344829 2.34234799,152.020693 C1.62635693,159.154022 1.35325489,166.352046 1.67737032,173.516821 C1.83891274,177.097405 2.16586224,180.666646 2.68655963,184.213209 C2.80790963,185.042887 2.9349278,185.998602 3.13949671,186.952513 C2.51780316,186.831632 1.77733596,187.35743 1.9033236,188.198965 C2.78085707,194.060327 9.86450537,195.767626 14.7499399,196.4424 C22.7412659,197.546318 30.7740724,198.158461 38.8421762,198.205628 C46.7706372,198.251765 54.69781,197.74272 62.6097818,197.28677 C70.7214273,196.819479 78.8328152,196.34987 86.944203,195.874074 C119.443087,193.968055 151.943773,192.082656 184.442915,190.175863 C187.411998,190.001628 190.802327,189.765793 193.345526,188.04303 C196.831699,185.681061 197.011018,181.927789 196.804646,178.092039 L196.804646,178.092039 Z" id="ðŸŽ¨-Background" fill="#FFFFFF"></path>
                        <path d="M38.3736001,112.53324 C38.2607523,112.32189 38.522518,112.131933 38.6961698,112.28426 C42.6414634,115.747827 44.7069907,121.310206 45.1400893,126.451688 C45.5989522,131.903753 44.9484026,137.54861 44.6997767,142.998354 C44.4230677,149.068748 44.1744418,155.14146 43.8366712,161.209017 C43.4937478,167.364982 43.1242872,173.518883 42.8076434,179.676135 L42.0952594,193.526796 L42.0952594,193.526796 C42.0195122,195.002899 42.1836311,196.818191 41.6173309,198.195834 C40.7398028,200.331487 38.1331502,200.000822 37.5853357,198.215891 L37.5682068,198.157172 L37.518224,198.195834 C37.0348849,196.587252 37.3966163,194.676851 37.478547,193.013628 L38.2249399,177.880689 L38.2249399,177.880689 C38.7522329,167.184328 39.2225533,156.487759 39.7889759,145.793422 L39.9815527,142.22873 C40.2463587,137.42997 40.449392,132.643319 40.61244,127.846041 L40.6653384,126.246524 C40.8201821,121.429799 40.6972861,116.882417 38.3736001,112.53324 Z M134.013363,23.73676 C136.21132,23.5279872 137.871059,24.2571457 139.866506,25.0252237 C140.735795,25.3595179 141.558966,25.7458766 142.392957,26.1458956 C143.437023,26.6467006 144.108449,27.532165 144.751429,28.4683539 L145.095122,28.9728348 C147.772295,32.8967333 149.573222,37.4237535 151.605256,41.6958646 C153.982274,46.693268 156.382995,51.6798463 158.709259,56.7009622 L159.857279,59.174763 C160.431166,60.4117207 161.003356,61.6494516 161.567055,62.8910487 L162.541044,65.0519916 C163.519455,67.243548 164.396648,69.5619967 163.002112,71.822818 C161.705394,73.9254957 159.406441,75.5523774 157.58619,77.1777128 C156.06764,78.533963 154.548832,79.8899556 153.029509,81.2456904 C156.169924,84.3917168 158.278221,88.3529884 159.517485,92.6011293 C161.278221,91.8673313 163.427224,91.726603 165.247733,91.4090621 C167.796084,90.964711 168.108348,94.8241735 165.703246,94.7770063 C163.927052,94.7422109 161.843233,94.9236628 160.021178,94.5494182 C160.337822,95.9453611 160.56764,97.362439 160.713724,98.7833832 C161.479334,106.230993 159.806284,113.721823 158.061313,120.927651 L157.917777,121.519262 C156.02281,129.318603 154.226005,137.138306 152.618567,145.002341 C151.007523,152.88313 149.558279,160.797167 148.271866,168.737495 C146.962522,176.819582 146.036035,184.946259 145.040244,193.07113 C144.889522,194.300828 144.116077,195.354745 142.75778,195.354745 C141.626211,195.354745 140.332841,194.298251 140.47506,193.07113 C141.502543,184.223285 142.959773,175.421835 144.407472,166.63456 C146.901024,151.50164 150.039343,136.500368 153.649878,121.597602 L154.280577,119.002363 C155.904973,112.271463 157.378607,105.336022 156.563861,98.3931583 C155.900177,92.7396823 153.53731,86.7118306 148.867283,83.2003821 L148.72506,83.0947478 C147.634198,82.2944518 147.214496,80.7639663 148.28887,79.7100501 C148.97257,79.0393137 149.657071,78.369379 150.341973,77.6998644 L154.452989,73.6847626 L155.281804,72.8738315 C155.972874,72.1988195 156.66725,71.5279217 157.382394,70.8776698 C157.815235,70.4843521 158.988801,69.7343162 159.074596,69.0873782 C159.130337,68.6650741 158.63058,67.9234493 158.42806,67.5345529 L157.500138,65.660926 L157.500138,65.660926 C156.973256,64.592576 156.462607,63.5164938 155.948094,62.4419579 C154.881965,60.2160784 153.800378,57.9969004 152.757438,55.7599379 L146.491291,42.328369 L146.491291,42.328369 C144.7236,38.5390129 143.148884,34.5385643 140.837822,31.0353043 L140.382151,30.3525366 C140.00179,29.7775234 139.66583,29.2240209 139.425421,28.5207512 C139.194315,27.8441726 138.904209,27.1013537 138.477035,26.5240065 C137.47609,25.1690449 135.56283,24.4004516 133.962091,24.1166751 C133.730728,24.075436 133.81472,23.7558332 134.013363,23.73676 Z M85.8202594,20.2089281 C85.9593868,20.2089281 85.9805135,20.4076579 85.8522072,20.4463195 C83.9209121,21.0272751 82.0754122,21.964691 80.569744,23.3178483 C79.849373,23.965302 79.1241068,24.7001307 78.6794143,25.5718218 C78.509215,25.9053945 78.4149794,26.2577567 78.3459954,26.6230837 L78.3238663,26.7453315 C78.2091472,27.4053467 78.0449434,27.7727329 77.7096732,28.3011351 L77.65219,28.3907709 C75.7386723,31.3468398 74.3976383,34.6302439 73.1715132,37.917772 L70.501329,45.0860265 L70.501329,45.0860265 L67.8328839,52.2550541 C66.9731278,54.5649583 66.1128565,56.87512 65.2528427,59.1850241 C64.7777482,60.4603427 64.2892562,61.7302487 63.801022,63.0004124 C63.5897544,63.5506963 63.3625129,64.0968565 63.1692804,64.6538418 C63.142743,64.7298763 63.058236,65.1884034 62.9948557,65.2997489 L63.0164978,65.3376373 L63.0164978,65.3376373 C63.5547149,66.2433507 64.9900463,67.0000878 65.8036843,67.6581089 L68.6052989,69.9239387 L68.6052989,69.9239387 C70.6028083,71.5397374 72.6515888,73.1101733 74.5890673,74.7981404 C75.8061749,75.8579849 75.0489609,77.7560135 73.6916952,78.1985605 C71.4172191,78.9398329 69.1888612,79.8269887 66.948394,80.6656885 C66.04337,81.0043645 65.1009902,81.2991982 64.206526,81.6726974 L63.6620295,81.9081033 C63.4493534,82.0037659 63.5515998,82.0028735 63.5601254,82.3954102 C63.5686276,82.8072856 63.6853401,83.2364298 63.7523274,83.6410883 C64.506965,88.2057391 65.3069478,92.7626577 66.1512452,97.3115861 C69.1378478,113.397663 72.7059516,129.366209 76.7754294,145.212068 C78.8309087,153.214254 81.0353057,161.177005 83.1358726,169.167335 C85.2312865,177.136272 87.9883288,184.991028 90.6209293,192.795783 C91.3637152,194.996655 87.8749656,195.944387 87.1504723,193.752787 C84.1164634,184.573483 81.3408709,175.314021 78.4745878,166.082652 C73.3820079,149.679807 69.368954,132.92076 65.8196582,116.121247 C64.0604689,107.795076 62.4514857,99.4369452 60.9942545,91.0525245 C60.7183184,89.4652709 60.4477445,87.8770024 60.1827502,86.2878278 L59.796517,83.950295 C59.5317541,82.2841594 59.3810012,80.548622 60.6755496,79.2300529 C61.9396341,77.9430806 64.1096902,77.4870301 65.7730733,76.8834048 L65.8938595,76.8389595 C66.9522587,76.4438376 68.0183872,76.0631493 69.0803933,75.6706048 C67.5159824,74.4385872 65.9708949,73.1792488 64.4103487,71.9480044 C63.1515029,70.954658 61.8728187,69.9814157 60.6320079,68.9653878 C59.6089059,68.1272034 58.7746565,67.0511212 58.6679921,65.6881695 C58.55917,64.2951504 59.1558978,63.0025144 59.6371773,61.724966 L59.6833649,61.6013766 C60.1558828,60.3258002 60.6296891,59.0509971 61.1156046,57.7803179 L64.1223033,49.9142209 L64.1223033,49.9142209 C66.032987,44.9157863 67.8630282,39.8768861 69.8726468,34.917371 C70.6677345,32.9546484 71.5341893,31.0228552 72.5580643,29.1676121 C73.051709,28.2729817 73.5811662,27.3974245 74.156484,26.5530543 C74.8011079,25.6061018 75.3862161,25.1444818 76.3850996,24.6220343 C77.9822312,23.7866851 79.2356665,22.3861028 80.8394967,21.5249792 C82.413698,20.6795781 84.0332446,20.2285256 85.8202594,20.2089281 Z M91.0051787,11.2913722 C91.0662401,11.1864703 91.2280402,11.2330999 91.2301013,11.3524576 C91.2718396,13.8365968 90.6818361,16.37512 90.3188166,18.8314228 C89.9542511,21.296489 89.837281,23.8984173 89.3098849,26.3371934 C89.2989609,26.4508071 89.276989,26.5627712 89.2459482,26.6726899 L89.2207402,26.7562856 L89.2207402,26.7562856 C88.9981363,27.4395656 88.4192116,28.018717 87.7088887,28.1996535 C87.9322655,29.437857 88.1427602,30.6781223 88.3197612,31.925089 C88.6237805,34.0684166 88.9012467,36.2149004 89.1741309,38.3620979 L89.5007987,40.9389213 C89.8091979,43.3673877 90.1090948,45.7968851 90.4056424,48.2266402 C91.1597646,48.5421193 91.9293456,48.802441 92.7174768,49.0279672 C94.5325748,49.5475796 96.3917296,49.7589299 98.2647973,49.9427016 C102.079328,50.317015 105.923036,50.4903795 109.751093,50.7029459 L110.571135,50.7491833 C114.874811,50.9958446 119.201933,51.0396611 123.494787,50.5978874 C125.623437,50.3788049 127.73534,50.0112615 129.811173,49.4903604 C130.865966,49.225657 131.891128,48.8302773 132.94386,48.5715021 C133.292966,48.4856733 133.604972,48.2877256 133.954852,48.0763754 C134.110211,47.8799743 134.328178,47.7312557 134.612101,47.6737788 L134.689007,47.6603761 L134.689007,47.6603761 L134.76514,47.6492932 L134.791421,47.6374368 L134.78936,47.6456846 C135.004749,47.6165596 135.209318,47.6168173 135.402293,47.6431072 C135.479071,45.748687 135.562289,43.8542666 135.666635,41.9603618 C135.946694,36.8735211 136.719882,31.5670822 135.687762,26.5245735 C135.653238,26.3549778 135.883828,26.2951811 135.94386,26.4539516 C137.969194,31.7920929 137.741695,37.6292272 137.843722,43.2475366 C137.94343,48.741871 137.883141,54.2400716 137.855832,59.7356948 C138.249252,59.9032285 138.600163,60.1303012 138.878161,60.448873 C139.433382,61.0855015 139.593121,62.1922552 138.878161,62.8067176 C138.561259,63.0791533 138.210606,63.2683376 137.83857,63.3995294 C137.81873,68.1737263 137.784979,72.9484388 137.737057,77.7228934 C138.644735,78.4242156 138.7295,80.0895012 137.702791,80.7815445 C137.531973,96.2431072 137.251143,111.705185 137.018233,127.164428 L136.530256,159.598451 L136.530256,159.598451 C136.465329,163.919791 136.357635,168.240873 136.318988,172.561699 L136.349648,172.573812 L136.349648,172.573812 L136.45765,172.623902 C136.639507,172.7093 136.910087,172.847424 136.966189,172.98878 C136.980874,173.025895 136.984739,173.051155 136.982935,173.070228 C137.280771,173.111982 137.575773,173.252711 137.831098,173.49499 C138.461294,174.093988 138.333245,174.996866 137.831098,175.606946 L137.696866,175.770099 L137.696866,175.770099 C137.383828,176.150272 136.789445,176.296671 136.304045,176.219348 C136.30894,178.916126 136.326202,181.61342 136.3177,184.310198 C136.314917,185.133845 136.302489,185.957585 136.288261,186.781307 L136.254307,188.756424 C136.231762,189.88349 136.131962,191.315804 134.977955,191.822154 C133.676082,192.393573 132.5087,191.925509 131.981561,190.602766 C131.838827,190.244501 131.869487,189.910722 131.92153,189.556582 C131.905299,189.02434 131.82208,188.407557 131.832385,187.91372 L131.875412,185.854601 L131.875412,185.854601 C131.882111,185.53706 131.894993,185.219777 131.904011,184.902235 L131.866395,184.906102 L131.866395,184.906102 C127.240529,185.130746 122.58229,185.021123 117.948855,185.018385 L115.888156,185.021382 C114.168768,185.022859 112.4457,185.013677 110.728764,184.947932 L110.08522,184.920535 C108.799837,184.860223 107.447982,184.840893 106.11545,184.725939 C106.285237,186.094302 106.443945,187.463698 106.585392,188.834382 C106.719366,190.134187 105.378332,191.238621 104.182094,191.238621 C102.761448,191.238621 101.948841,190.121557 101.778796,188.834382 C100.975979,182.762959 100.647484,176.63483 99.8804793,170.55954 C99.1934215,165.117993 98.5977705,159.664127 97.9922902,154.212223 L97.7899605,152.395015 C95.5741478,132.554813 93.4228771,112.707144 91.3651263,92.8499815 L90.4070256,83.5672949 C89.4393788,74.2112115 88.4660684,64.8545473 87.6452507,55.4847187 C87.1758245,50.127762 86.7432411,44.7697743 86.3361645,39.4076627 C86.0375559,35.4682994 85.8499915,31.5508444 85.7278684,27.6192134 C85.2463329,27.1235712 85.004921,26.3998254 85.2182498,25.652367 C85.3429491,25.2162637 85.4880024,24.7824801 85.6410426,24.3494698 C85.6315098,23.9239339 85.6214617,23.4986559 85.6132171,23.0726046 C85.6054878,22.6694926 86.0146256,22.4620085 86.3420904,22.5287643 C86.9372467,21.0872006 87.5926915,19.6580087 88.1396685,18.2303632 C89.0249313,15.9194282 89.7545774,13.4293609 91.0051787,11.2913722 Z M41.5646685,36.2671261 C50.8189626,30.4653028 61.8347646,26.2903613 72.8678289,26.7398673 C73.1187737,26.7501771 73.1893679,27.1326695 72.9288904,27.1906621 C67.0437994,28.5051578 61.0940399,30.1062651 55.5225009,32.436531 C49.9347304,34.7737559 44.6216077,37.9208133 39.889471,41.7026949 C31.1584507,48.6803474 24.3721229,57.7562961 19.9035555,67.986939 C17.286156,73.9800085 15.4514772,80.3071148 13.8494504,86.6365405 C12.1541567,93.3350561 10.7569563,100.10574 9.5952422,106.917148 C7.30066988,120.371656 5.96478878,133.974367 5.25395049,147.600533 C4.53074549,161.461504 4.8288389,175.332268 4.31303671,189.195301 C4.22389207,191.597221 0.792081756,191.550311 0.617657159,189.195301 C-0.551013402,173.433982 0.0964445244,157.421105 1.17725867,141.670868 C2.14908966,127.511945 3.84618683,113.382662 6.57901061,99.4515851 L6.81705427,98.244221 C9.37181134,85.3553106 12.4533118,72.1540935 18.6295088,60.4816839 C23.902439,50.5165176 32.0429406,42.2369987 41.5646685,36.2671261 Z M170.07445,97.8672827 C170.122629,97.7291318 170.305041,97.730936 170.353735,97.8672827 C171.408785,100.821573 171.446673,104.155152 171.727065,107.269353 L171.749133,107.508465 C172.017998,110.348921 172.220499,113.192839 172.408751,116.039133 L172.478779,117.106603 C173.234446,128.717982 174.178968,140.316473 175.602448,151.866767 C177.020774,163.373502 178.938415,174.800078 181.012187,186.203973 C181.243293,187.473621 180.681115,188.766982 179.350129,189.132721 C178.176821,189.45516 176.670638,188.732187 176.422527,187.470013 C175.135083,180.92434 174.093945,174.369904 173.16514,167.767526 C171.530135,156.141456 170.309937,144.461774 169.525412,132.747298 C169.131733,126.86377 168.88929,120.982561 168.792932,115.086404 C168.748433,112.350816 168.819454,109.608562 168.965149,106.875737 L169.000077,106.24526 C169.160846,103.452085 169.144357,100.53107 170.07445,97.8672827 Z M70.0760821,171.825065 C70.199751,171.758051 70.3527911,171.895687 70.2744676,172.023528 C68.4825576,174.936812 66.0583906,177.448787 63.7153813,179.924678 C61.2659652,182.512689 58.8770955,185.178795 56.378212,187.716029 C54.5726468,189.548849 51.6682326,186.592265 53.5737633,184.910483 C56.2529972,182.546454 59.0533237,180.299954 61.7802216,177.988504 L62.9727626,176.977273 C65.2085889,175.087712 67.5107344,173.215072 70.0760821,171.825065 Z M155.186345,170.366001 C155.052628,170.111091 155.358193,169.90438 155.565854,170.073204 C157.011233,171.249033 158.306665,172.651677 159.702318,173.892457 C161.084576,175.12164 162.518361,176.268087 163.991309,177.38618 C165.47044,178.508915 166.981776,179.586801 168.53382,180.606695 C169.821265,181.452612 171.148128,182.130222 172.496376,182.832576 C173.120646,182.912991 173.698798,183.219449 174.161526,183.800662 C174.893233,184.719778 174.971041,186.452851 173.956183,187.250827 L173.774029,187.393876 L173.774029,187.393876 C172.589643,188.325105 171.183683,188.438512 170.017846,187.393876 C168.716044,186.2277 167.485573,184.944367 166.235455,183.711965 L165.859739,183.34394 C164.516387,182.037691 163.205754,180.689174 161.970096,179.280085 L160.851474,178.007123 C158.776266,175.639733 156.616246,173.088216 155.186345,170.366001 Z M148.528246,33.8816772 C148.287865,33.7223913 148.43601,33.2935049 148.732815,33.3958293 L149.277215,33.5840598 C151.551613,34.3747067 153.892688,35.2515498 155.957652,36.4689141 C158.176735,37.7769662 160.225773,39.335288 162.183348,41.0070173 C166.235306,44.467234 169.682574,48.722334 172.612238,53.1573395 C178.49063,62.0569911 182.125979,72.2492301 185.061052,82.4473973 C188.190648,93.3211121 190.600129,104.428859 192.567494,115.56805 C194.566549,126.888436 196.108802,138.310888 197.122372,149.762209 C197.621685,155.403199 197.956879,161.04754 198.125378,166.70812 C198.212204,169.620115 198.20937,172.530048 198.185151,175.443073 C198.178968,176.192206 198.183927,176.940954 198.192429,177.689701 L198.220963,179.936328 C198.236165,181.356757 198.40621,182.849354 198.068696,184.237049 C197.525584,186.470918 193.833554,186.054146 193.954904,183.771048 C193.843602,183.011476 193.839222,182.226387 193.868078,181.439751 C193.850559,181.3382 193.831493,181.235102 193.810366,181.129684 C193.74982,180.827866 193.801349,180.548471 193.919865,180.308254 C193.93893,179.930916 193.956191,179.555898 193.962376,179.187323 C193.986594,177.68751 193.985048,176.193624 193.943567,174.694326 C193.856227,171.532834 193.730496,168.371344 193.603478,165.211399 C193.3497,158.896665 192.996728,152.579095 192.485048,146.279826 C190.704732,124.353521 186.945457,102.302211 180.630874,81.2076473 C177.69812,71.411819 173.654921,61.7956384 167.856656,53.3308013 C165.282798,49.5728901 162.378899,46.1018482 159.159644,42.8803026 C155.920037,39.638653 152.350129,36.4137568 148.528246,33.8816772 Z M104.83522,175.228578 L105.272764,178.394899 C105.491479,179.97833 105.708116,181.562283 105.913715,183.147255 C107.3104,182.956009 108.739291,182.87585 110.08522,182.756515 C112.44137,182.547741 114.81375,182.446706 117.176855,182.349021 C122.063578,182.147465 126.974777,181.797706 131.866395,181.822191 C131.916635,181.82245 131.964041,181.8258 132.011448,181.829666 L132.254148,175.582204 L132.254148,175.582204 L128.817185,175.57679 L128.817185,175.57679 C125.905299,175.572151 122.993928,175.547407 120.082043,175.522406 C117.459522,175.499854 114.836016,175.496245 112.213939,175.44165 L111.090287,175.414927 C109.101795,175.361316 106.906158,175.471889 104.83522,175.228578 Z M132.542451,166.160362 C132.402293,166.176857 132.259559,166.190776 132.107806,166.19722 C131.427112,166.225829 130.741009,166.205983 130.059799,166.211652 C128.609267,166.224283 127.158991,166.234077 125.708201,166.23382 C122.807137,166.233561 119.906329,166.251088 117.005779,166.286141 C114.019693,166.322226 111.035666,166.374032 108.049322,166.37996 C106.602396,166.382538 105.160108,166.344133 103.713698,166.303667 C103.947638,168.359951 104.192142,170.414689 104.462152,172.464529 C106.708277,172.16096 109.124058,172.31401 111.31924,172.293037 L111.604285,172.289262 C114.600421,172.237972 117.599133,172.27586 120.596041,172.279468 C123.679002,172.283077 126.761706,172.293129 129.844924,172.318388 L132.377817,172.339265 L132.377817,172.339265 L132.382712,172.211682 L132.382712,172.211682 C132.456913,170.196637 132.504835,168.179015 132.542451,166.160362 Z M102.59939,156.323294 C102.880222,158.750472 103.143791,161.181773 103.412513,163.612302 C103.59106,163.584723 103.771925,163.561011 103.95614,163.54168 C105.405127,163.390127 106.851022,163.260223 108.305161,163.170013 C111.203908,162.990365 114.102396,162.895516 117.005779,162.817677 C119.991351,162.737518 122.977439,162.676174 125.964041,162.633905 C127.415089,162.613543 128.864849,162.615605 130.315896,162.625657 C130.99659,162.630296 131.68424,162.608904 132.363646,162.654524 C132.444546,162.659937 132.522098,162.668443 132.598874,162.677206 L132.649888,159.028044 C132.658677,158.419959 132.667838,157.811939 132.677713,157.204006 C130.435076,157.342341 128.155115,157.289551 125.914159,157.290178 L125.397741,157.291382 C122.581956,157.30427 119.76514,157.265607 116.949871,157.2071 C114.045457,157.146529 111.146968,157.051679 108.247707,156.865588 C107.073074,156.790474 105.906959,156.690365 104.738815,156.561526 L104.154526,156.494694 C103.646195,156.43464 103.122664,156.386184 102.59939,156.323294 Z M132.909078,146.02538 C127.508135,146.454217 122.135937,146.633376 116.720595,146.686649 L115.907961,146.693711 C111.122492,146.730052 106.297604,146.927485 101.500799,146.800674 C101.787556,149.288165 102.07354,151.775655 102.361843,154.262629 C103.04872,154.230668 103.738947,154.230411 104.410366,154.206183 C105.776134,154.156954 107.137264,154.144582 108.503805,154.141489 C111.319074,154.135045 114.134344,154.159532 116.949871,154.153861 C119.851451,154.147676 122.752516,154.098704 125.653582,154.044062 C128.005609,153.999988 130.382627,153.822917 132.741094,153.829361 L132.909078,146.02538 L132.909078,146.02538 Z M133.137607,135.413018 C132.511746,135.620911 131.772913,135.634282 130.962782,135.671451 L128.871972,135.775627 C127.902922,135.82314 126.93376,135.867833 125.964041,135.903248 C122.732935,136.021552 119.501829,136.132124 116.270207,136.234965 C112.958717,136.340124 109.631252,136.40121 106.319246,136.296823 C104.696865,136.245532 103.08814,136.160477 101.470654,136.025161 C101.070792,135.991654 100.6632,135.969745 100.254835,135.940878 C100.631252,139.236654 101.009215,142.531915 101.388466,145.827174 C106.162341,145.241065 110.973059,144.876099 115.741009,144.269884 L120.052244,143.719157 C124.361451,143.169074 128.667107,142.629213 132.992039,142.174166 L133.137607,135.413018 L133.137607,135.413018 Z M133.367683,124.683382 C132.449382,124.910197 131.402817,124.898881 130.520978,124.954569 L130.357635,124.96587 C128.686817,125.09268 127.01162,125.156085 125.336938,125.197324 C122.05456,125.278256 118.770122,125.318722 115.486715,125.338826 L113.512282,125.351105 C110.880163,125.366528 108.249562,125.373209 105.616652,125.311763 C103.9278,125.272586 102.242812,125.18985 100.555247,125.10531 C100.049751,125.079793 99.5329183,125.06304 99.0145396,125.037007 C99.3672535,128.157259 99.7235744,131.276738 100.079122,134.396474 C100.633571,134.308326 101.190596,134.241312 101.721599,134.151617 C103.081699,133.92171 104.439222,133.738196 105.809112,133.574012 C108.776134,133.218326 111.758614,132.962385 114.739549,132.746396 C117.799837,132.524478 120.862701,132.33684 123.923506,132.122139 L126.091252,131.969265 C126.813813,131.919101 127.536439,131.870581 128.259387,131.826249 C129.494015,131.750472 130.929088,131.836043 132.153667,131.567216 C132.485254,131.429065 132.853427,131.397362 133.222115,131.476232 L133.367683,124.683382 L133.367683,124.683382 Z M133.64568,112.124278 C133.328006,112.527905 132.853427,112.739513 132.287641,112.812713 C129.34043,113.195133 126.31738,113.256612 123.345246,113.436834 L122.821307,113.46996 C119.752516,113.67229 116.681922,113.83106 113.610812,113.994212 C110.455969,114.161746 107.30164,114.29835 104.14422,114.408407 C102.803766,114.455091 101.456605,114.460532 100.114129,114.443378 L99.5391017,114.434697 C98.9877448,114.425418 98.4103659,114.426707 97.8316988,114.407892 C98.1519495,117.325557 98.475292,120.242964 98.8032721,123.159598 C99.3932755,123.09542 99.9830213,123.046448 100.555247,122.985879 C102.241781,122.807519 103.926254,122.631222 105.616652,122.497969 C108.819675,122.245379 112.025017,122.093568 115.233966,121.934797 C118.517116,121.772161 121.80207,121.663908 125.085735,121.51055 C126.677713,121.436062 128.269177,121.343532 129.856518,121.197133 C130.969023,121.094809 132.290476,120.715925 133.45116,120.855107 C133.51454,117.944659 133.580496,115.034468 133.64568,112.124278 Z M133.904612,100.873741 C133.854372,100.951579 133.795628,101.026841 133.724261,101.096947 C132.426712,102.379343 130.827533,102.28048 129.108107,102.415015 L129.002688,102.423557 C127.317443,102.565316 125.631424,102.700116 123.944374,102.821772 C120.57208,103.06534 117.193087,103.235709 113.815896,103.38752 C110.35961,103.54294 106.881166,103.649904 103.42153,103.579282 C101.206055,103.533919 98.8857179,103.541909 96.6259276,103.32592 C96.9729732,106.539217 97.32208,109.752257 97.6737633,112.965039 C98.309112,112.845188 98.9485829,112.753431 99.5543027,112.658066 C101.08084,112.417848 102.608923,112.176342 104.14422,111.999529 C107.212238,111.646162 110.281029,111.315734 113.354972,111.017524 C115.983794,110.762572 118.611722,110.503682 121.242482,110.270686 L122.821307,110.134234 C125.960177,109.870046 129.138724,109.434459 132.287641,109.370022 C132.806535,109.359455 133.393448,109.641943 133.690768,110.08784 C133.760332,107.016302 133.832472,103.945021 133.904612,100.873741 Z M134.122578,91.7658317 C133.32105,91.863259 132.457429,91.807844 131.717734,91.832072 C129.847501,91.8931573 127.97701,91.9498611 126.106518,92.0050184 L114.883313,92.3364774 L114.883313,92.3364774 C111.062204,92.4491117 107.227697,92.5336518 103.405041,92.4795256 C101.723454,92.4558646 100.034563,92.453081 98.353581,92.3616316 L97.7935676,92.3277141 C97.1017949,92.2815779 96.2528599,92.2751344 95.4237633,92.190852 L96.4025506,101.260099 L96.4025506,101.260099 C98.6513999,100.935101 100.968926,100.813521 103.198654,100.622938 L103.675052,100.580943 C106.963612,100.281187 110.267889,100.082981 113.562376,99.8597748 C116.941884,99.6308978 120.316498,99.3530495 123.69137,99.0687576 C125.378161,98.9269983 127.064694,98.7854966 128.750198,98.6303346 L128.958413,98.609826 C130.550595,98.4435085 132.047765,98.0896945 133.457859,99.0288072 C133.66423,99.1659272 133.825773,99.3494411 133.936302,99.5548633 C133.997879,96.9586054 134.058167,94.3620896 134.122578,91.7658317 Z M134.384087,81.1815637 C127.549063,81.4568345 120.713011,81.6656073 113.872835,81.7573643 C110.022613,81.8089132 106.177284,81.7725712 102.327576,81.692155 C100.658276,81.6571018 98.9751329,81.5772456 97.3070993,81.4493282 L96.6823515,81.3990998 C95.889325,81.332344 95.0561061,81.2838882 94.2264944,81.2039874 C94.5694177,84.3221774 94.9095071,87.440883 95.2470199,90.560104 C96.0630687,90.4083663 96.9159946,90.3384124 97.6310754,90.2468538 L97.7935676,90.2252943 C99.5705341,89.980695 101.364248,89.8381624 103.149974,89.6809384 C106.62713,89.3744805 110.121548,89.1770483 113.607978,89.0092568 C117.178143,88.8373415 120.750112,88.6917159 124.320791,88.5329455 L127.891787,88.3730294 C128.486915,88.3466823 129.082043,88.320736 129.677199,88.2955629 C130.527679,88.2597366 131.377902,88.2254566 132.228126,88.1901456 C132.64757,88.1728767 133.083502,88.1159152 133.503461,88.1375657 L133.622971,88.1215032 C133.678071,88.1144822 133.726735,88.108853 133.77141,88.104059 C133.885632,88.0170704 134.008621,87.9449377 134.138887,87.8901968 L134.217906,87.8594596 L134.384087,81.1815637 Z M93.1057455,71.151188 C93.4231622,73.9582807 93.7369718,76.7661467 94.0466593,79.5742705 C95.021582,79.4629249 96.0080985,79.401324 96.9389643,79.3175572 C98.8158966,79.1492501 100.701589,79.0018205 102.584189,78.9152184 L106.346728,78.74042 C108.854858,78.624397 111.362874,78.5121923 113.872835,78.4206071 C120.742124,78.169822 127.611156,77.8824371 134.476323,77.5316472 C134.52476,75.6271749 134.574743,73.7227024 134.625756,71.8182301 C134.296229,72.1713398 133.820105,72.4035673 133.194546,72.4020209 C125.987229,72.3826901 118.774244,72.4244446 111.5677,72.3058823 C107.960435,72.2463434 104.357291,72.158968 100.754148,71.9739077 C98.9910941,71.8834395 97.2182498,71.6988945 95.4685933,71.4563572 C94.7224579,71.3530017 93.905986,71.279287 93.1057455,71.151188 Z M91.9522759,61.148391 C92.291077,64.023786 92.623437,66.900212 92.9503865,69.7771534 C93.8454398,69.617352 94.770122,69.5322963 95.6051443,69.4186311 C97.399373,69.1745473 99.2046805,68.980208 101.011791,68.8781413 C104.528109,68.6791628 108.046487,68.5789002 111.5677,68.5041545 C118.773729,68.3510544 125.986972,68.3520854 133.194546,68.2951239 C133.871633,68.2897112 134.374296,68.5577652 134.704337,68.9577844 C134.75432,67.1620801 134.807137,65.3663759 134.8615,63.5704138 C134.165348,63.4969567 133.475121,63.392828 132.836422,63.3482383 C130.873437,63.2111183 128.909679,63.0858546 126.945148,62.9732204 C122.845526,62.7378999 118.742039,62.5371171 114.639583,62.3585004 C110.536096,62.1798835 106.431321,62.0053907 102.326546,61.8533216 L100.531339,61.7877373 C97.6768112,61.6815221 94.773841,61.5474016 91.9522759,61.148391 Z M90.6614823,50.3187504 C91.0141961,53.2310028 91.3614995,56.1437707 91.7080299,59.057054 L91.8134061,59.9586435 L91.8134061,59.9586435 C95.2465046,59.2910859 98.8645912,59.0954579 102.326546,58.948286 C106.432094,58.7735354 110.530428,58.6835827 114.639583,58.6962121 C118.744616,58.7085838 122.843465,58.8057534 126.945148,58.9753491 C128.994701,59.0598893 131.043996,59.1578321 133.092262,59.2691776 C133.655471,59.2995915 134.315811,59.2833535 134.995474,59.2931478 C135.01016,58.835394 135.022784,58.3776402 135.0385,57.9201441 C135.10085,56.065932 135.161912,54.2117198 135.22555,52.3577652 C133.840154,53.0695977 132.038811,53.356717 130.64653,53.6600976 L130.487745,53.6952002 C128.188793,54.2117198 125.841404,54.5465295 123.494787,54.7511784 C118.886577,55.1532595 114.230445,55.0029946 109.626615,54.613543 L108.820153,54.5445218 C104.777332,54.1938468 100.586132,53.7493588 96.6668928,52.7485056 C94.8000085,52.2719365 92.8700017,51.6048943 91.1971229,50.6380956 C91.0232137,50.5375752 90.8436362,50.431127 90.6614823,50.3187504 Z M129.588157,15.7099337 C129.628091,15.5524519 129.863835,15.5166255 129.941387,15.6637974 C130.485787,16.6983829 130.688294,17.9401947 131.066257,19.0487528 C131.473077,20.2405623 131.852585,21.441135 132.3014,22.6185108 C133.238965,25.0784221 134.345028,27.4421946 135.663646,29.7209117 C136.969641,31.9772049 133.312909,33.5878488 132.351898,31.1176278 C131.359713,28.5685371 130.544272,25.9328443 130.050884,23.239159 C129.809988,21.924921 129.595371,20.5926409 129.525807,19.2572679 C129.465777,18.110306 129.304491,16.8288015 129.588157,15.7099337 Z" id="ðŸ–-Ink" fill="#000000"></path>
                    </g>
                    <g id="head/hat-hip" transform="translate(32.000000, 0.000000)">
                        <path d="M123.736402,69.188704 C123.634009,63.4267008 123.52081,57.5494678 122.664103,51.8435363 C121.826434,46.2651805 119.522072,41.222849 115.562181,37.1720595 C107.151272,28.5676361 94.9592737,26.4659788 83.6106048,24.5399954 L64.2076023,21.2469444 C58.2880902,20.2425421 51.9728976,18.6370415 45.9921553,20.0614666 C43.0451341,20.7633909 40.5424171,22.3940981 38.2550347,24.3234251 C36.0502358,26.1830485 33.6797552,28.1800216 32.1857918,30.6818967 C30.6892555,33.1873727 30.1744594,36.1162152 29.687963,38.9498903 C29.1392073,42.1446872 28.7129118,45.3644335 28.4101057,48.5918961 C27.8032071,55.0581383 27.7203664,61.5729932 28.1605543,68.0526103 C28.3738307,71.1954511 28.7131691,74.3292894 29.1464108,77.4492384 C29.3612307,78.9963525 29.604093,80.5396084 29.8783423,82.077463 C29.9591249,82.5309229 30.0206123,83.0329955 30.1034531,83.5402123 C29.4914091,85.2804906 29.1435808,87.0827563 29.1716232,88.8773057 C29.2542067,94.1634716 33.7170593,97.4915031 38.216187,99.2783362 C40.8248989,100.314375 43.5522121,101.018357 46.1153874,102.175799 C48.8118282,103.393171 50.6471883,105.366738 52.4907809,107.618091 C56.0068822,111.911944 59.9747485,115.771112 64.5055203,118.990858 C74.1114459,125.817451 86.2782315,129.046199 97.9335654,126.595509 C100.730084,126.007529 103.551301,125.094436 106.06508,123.718623 C108.719072,122.266162 110.71471,120.161418 112.390563,117.672918 C115.502237,113.053181 117.733792,107.851123 119.421994,102.557498 C121.143898,97.1576454 122.366185,91.7480189 123.03277,86.1174497 C123.69704,80.5051423 123.836995,74.8357346 123.736402,69.188704 L123.736402,69.188704 Z" id="ðŸŽ¨-Background" fill="#FFFFFF"></path>
                        <path d="M61.8194474,1.17528084 C69.8488262,0.0710812271 80.931221,3.65992286 84.9299597,10.8962498 C104.020894,6.39663002 128.099512,6.24924908 143.834367,21.2283482 C160.253044,38.9968824 139.630327,62.4247933 125.955685,67.7068439 C126.951318,72.5441796 125.398954,103.534044 114.414836,117.357245 C105.697519,129.069529 85.397161,134.474782 76.0034825,120.485424 L75.9302082,120.369996 C74.9238127,118.754396 75.7905628,118.806274 76.8236574,120.008044 C86.0220684,128.09522 98.5287068,128.233341 108.166277,119.698622 C126.228648,104.098876 124.366275,65.8492782 115.771418,43.7213032 C91.2973778,41.0339802 65.093458,48.4500965 48.1895706,66.8685987 L49.3326187,73.7484336 C49.5273717,74.9205365 49.7486234,76.0916104 49.917392,77.2678287 C50.0254452,78.021452 50.0375369,78.7709599 49.51528,79.3810604 C47.790803,81.3950094 44.8844304,78.3686846 42.4931111,77.164945 C41.7871638,77.0656622 41.0799301,77.027338 40.3863318,77.0762078 C28.8971939,78.5556757 31.1609076,100.837719 43.7882053,96.9319956 C44.8491844,96.2712249 45.76069,96.472877 46.1723211,97.4317533 C49.182116,100.188008 51.1666924,105.103793 56.1672382,109.838502 C57.9315919,111.614532 59.5372104,113.100431 61.5217867,114.525113 C62.6874745,115.703646 66.204862,116.905328 65.0898563,118.922106 C62.9812761,123.511235 50.5471876,109.095939 48.3488205,105.109452 C41.4609461,107.828668 33.8277624,106.90503 26.6898222,106.240401 C-10.9667032,104.283038 -5.93965874,64.5982121 24.9264976,39.543195 C30.7366703,35.2668328 37.1470524,31.7783029 43.8105878,29.0938092 C44.7202924,28.7272859 44.3228112,27.2339286 43.4002431,27.6055961 C38.9911597,29.3821409 34.6929594,31.4966586 30.5956867,33.9440054 L30.5894836,32.4808487 C30.5834806,30.0164619 30.6221425,27.450799 31.0502817,25.1991457 C31.2643299,23.638914 31.6242497,21.9724548 32.1784081,20.7188166 C32.8635166,16.8753377 43.5955106,3.68255728 61.8194474,1.17528084 Z M39.8837817,82.191741 C40.4652106,81.6395126 41.5506302,82.2979685 42.0682564,82.2815071 C43.3919076,82.4625825 44.6494404,83.0214984 45.6301516,83.7113336 C46.2776986,84.0739989 46.7315219,84.4145439 47.110737,84.7278249 L47.1210278,84.7249956 C47.1181979,84.7249956 47.114596,84.7278249 47.1115088,84.7285966 L47.1472024,84.7527096 C47.6993724,85.1449328 49.7207065,87.3541633 48.4436499,86.7600358 C48.3484603,86.6363181 48.2509552,86.5174873 48.1526782,86.4009716 C48.1421302,86.4169185 48.1274658,86.4326082 48.1099715,86.4477836 L48.1817046,86.5542136 C49.2671225,88.1865891 47.3931297,86.4668171 47.1048199,86.0100134 C47.0911846,86.0210734 47.0757484,86.0285324 47.0605695,86.0365059 L47.4360372,86.4933715 C47.4885292,86.558235 47.5297968,86.6100184 47.5640458,86.6538083 L47.6432204,86.7302239 C48.8981828,87.9634638 48.9373889,89.0733349 47.4794041,87.2500195 C47.5367752,87.3359274 47.5828265,87.4269795 47.5892582,87.5077433 L47.6756617,87.6178617 C48.8204176,89.0926431 47.8892946,88.5688878 47.3204479,87.9390139 L47.272846,87.8848355 L47.282586,87.899546 C47.8117841,88.7145889 46.7617836,88.142711 46.5762429,87.7067362 L46.5684131,87.6870181 C46.3662336,87.5220955 46.2418204,87.3370078 46.1991477,87.2902681 L46.1912561,87.2824279 C45.2069433,86.2741674 43.7801271,85.421004 42.5681308,85.0333897 C42.3924158,84.9999524 42.2146426,84.9732026 42.0350686,84.9541692 C41.3062243,84.7916129 40.5694047,84.6802412 39.8248669,84.6200542 C39.7337936,84.6092514 39.6414339,84.542377 39.5724857,84.4559546 C38.4466311,84.4179945 38.7941679,83.9566231 39.2612763,83.870947 L39.2694514,83.8695408 L39.1767825,83.8617423 C38.4542559,83.7912439 37.9608123,83.5320632 38.6913791,83.3729872 L38.7839549,83.3545844 C38.772635,83.3368369 38.7626016,83.3190894 38.7528253,83.3013421 C38.1271461,83.2326671 38.5354326,82.6246244 38.8827464,82.771748 C38.7366174,82.2941103 39.4044888,82.5325433 39.4878441,82.4615536 C39.5513896,82.3910783 39.6303713,82.3288336 39.675908,82.3254899 C39.8770927,82.1835103 39.7795875,82.1963708 39.8837817,82.191741 Z M43.7120536,74.4585885 L43.5654101,74.5442393 C43.4468088,74.6134285 43.3248632,74.659469 43.2024029,74.686476 C43.3752879,74.7600379 43.5461148,74.8395155 43.7151408,74.9243946 C43.7123967,74.8206535 43.7104528,74.7170267 43.7104528,74.6135905 L43.7120536,74.4585885 Z" id="ðŸ–-Ink" fill="#000000"></path>
                    </g>
                    <g id="face/Calm" transform="translate(103.000000, 58.000000)" fill="#000000">
                        <path d="M30.9360993,48.4849362 C29.0206176,49.0348673 26.964575,49.0840378 25.0120666,48.5161011 C23.2411094,48.000922 21.422733,46.8672129 20.1193478,45.3670418 C18.9614916,44.0343717 18.2116129,42.4148478 18.2410657,40.6861226 C18.2444161,40.4886878 18.3156356,40.32389 18.4251931,40.1959744 C18.5431361,40.0582679 18.7078676,39.9637085 18.8843376,39.922666 C19.0658247,39.8804566 19.2576848,39.8954209 19.4210564,39.9689804 C19.5689521,40.0355718 19.6956629,40.148679 19.7748951,40.3139935 C19.9752022,40.5748207 20.1747312,40.8317851 20.3750434,41.0816226 C21.9856084,43.0529284 23.5453147,44.5261278 25.9671301,45.054523 C27.2811356,45.3412727 28.5934885,45.2141176 29.797619,44.7766209 C31.0865828,44.3083017 32.2517662,43.4848857 33.1648343,42.4311804 C33.5774658,41.9549812 34.0646245,41.7606134 34.5409818,41.7573465 C35.0807985,41.7536444 35.6143598,42.0022834 36.0163223,42.3996835 C36.4114357,42.7903122 36.6759958,43.3211389 36.6999739,43.8764237 C36.7210185,44.3637762 36.5606292,44.8728506 36.1339337,45.3270243 C34.7284598,46.8230983 32.9069554,47.9191072 30.9360993,48.4849362 Z M30.8769586,23.7951713 C32.8404807,24.9782293 35.8322853,27.7368895 33.7199876,30.6698341 C31.233611,33.2559084 27.6537902,30.2907977 25.8897164,28.9497935 C24.2539847,27.9105078 22.4161484,30.5834729 23.9337813,31.7970141 C36.6810146,41.151903 41.854112,24.1045245 31.8700807,22.4041852 C30.7708031,22.2168152 30.3625285,23.4291794 30.8769586,23.7951713 Z M12.5091982,18.5894928 C11.8781092,18.1894323 11.1357451,18.0521112 10.3129902,18.4231472 C9.67004,18.7129651 8.54237785,19.6791335 7.75759988,20.9492209 C7.22070658,21.8181306 6.83998818,22.8374754 6.91924849,23.8992466 C6.93765588,24.145831 6.84573575,24.327645 6.70074917,24.4620767 C6.58624197,24.5682478 6.42084012,24.6462737 6.22656542,24.6706651 C6.0616272,24.6913734 5.8770096,24.672692 5.72689637,24.6262504 C5.44134142,24.5379063 5.29021206,24.3542983 5.23326954,24.2043991 C4.68378917,22.7579149 4.92051114,21.1437274 5.53633994,19.6874467 C6.36743815,17.7221079 7.87673538,16.075892 8.86558129,15.5451312 C10.557703,14.6365693 12.5539316,14.5947532 14.2484756,15.5203498 C15.6909557,16.3081382 16.592906,17.579993 17.4899595,18.8764432 C17.6806526,19.1520389 17.8699175,19.4256139 18.0655269,19.6943767 C18.4575481,20.232919 18.4965684,20.7670384 18.3447536,21.2250494 C18.1765705,21.7324428 17.7477383,22.1606491 17.2114927,22.3847439 C16.7158574,22.5918678 16.1406084,22.621024 15.6315802,22.4082084 C15.2015726,22.22843 14.8069426,21.877973 14.5572396,21.2833367 C14.1366901,20.2818966 13.4360144,19.1770207 12.5091982,18.5894928 L12.5091982,18.5894928 Z M44.5609815,20.8175071 C44.1287705,21.0407394 43.7906336,21.108045 43.3111836,20.9656561 C43.0460489,20.886716 42.784006,20.7354233 42.5788491,20.5320633 C42.3755274,20.3305223 42.228831,20.0798902 42.17181,19.8018488 C42.0315681,19.1156496 41.6528049,18.4733228 41.1130513,18.0545885 C40.6517142,17.6966889 40.0694023,17.5069937 39.4235087,17.6140123 C38.7265399,17.7293409 38.0625081,18.1724233 37.6051664,18.6948073 C37.4523095,18.8696066 37.3324911,19.0681289 37.2120325,19.2653112 C36.9866956,19.6340643 36.7676768,19.9768291 36.456904,20.2476363 C36.3391003,20.3506704 36.1615879,20.4220322 35.9896599,20.4220322 C35.9197839,20.4220322 35.8488695,20.4107616 35.7812949,20.3898856 C35.0875871,19.6997246 34.9541814,19.1761668 34.9765466,18.6568671 C34.9999998,18.1123045 35.2165918,17.5609404 35.5666059,17.0465013 C36.387653,15.8397538 37.9465466,14.8503333 38.9985002,14.6262249 C40.4391435,14.3193463 41.8698743,14.6877337 43.0169684,15.4853191 C44.1972608,16.3059877 45.0718546,17.580153 45.3445271,19.0160746 C45.410123,19.3619041 45.3822485,19.735188 45.2493794,20.0588413 C45.1195462,20.3750994 44.8932907,20.6459684 44.5609815,20.8175071 Z M15.6864809,5.72355988 C14.821921,6.55852134 13.7986386,6.68785415 12.7634207,6.80288707 C12.1882278,6.86740402 11.7290519,6.91941366 11.2772028,7.02047598 C10.0352498,7.29836756 8.80762117,7.7169022 7.68761108,8.31967244 C6.51682092,8.94979793 5.24092566,9.70972756 4.32301452,10.6832561 C4.1047456,10.9149209 3.89899249,11.158004 3.692952,11.4016193 C3.50507163,11.6237661 3.32408443,11.8376279 3.13334166,12.043834 C2.91428689,12.2806883 2.70627052,12.5289277 2.49936,12.7765185 C2.37141637,12.9854349 2.34614265,13.0368178 2.3203776,13.0903076 C2.28160591,13.1706834 2.23650585,13.2606334 2.18499532,13.3571318 C2.11444997,13.4892896 2.03181871,13.6339584 1.94527754,13.7651223 C1.80129255,14.0048667 1.72403298,14.0709043 1.65727237,14.1004421 C1.54649378,14.1493468 1.44143594,14.173438 1.33951286,14.1603921 C1.24394585,14.1481596 1.15391114,14.1026618 1.06500074,14.0281807 C0.621129231,13.6564405 0.490220431,13.0463679 0.503637908,12.3987743 C0.523998646,11.4160574 0.889664738,10.3280109 1.2267536,9.65916183 C2.010552,8.10504159 3.09757452,6.48943354 4.40465477,5.32951744 C5.89615138,4.00549439 7.52789822,3.00314098 9.40212738,2.3124511 C10.566851,1.883075 11.9153962,1.48894988 13.1843179,1.53873354 C14.0976869,1.57456768 14.9696277,1.8436961 15.689713,2.51577963 C16.1318875,2.92835268 16.3441431,3.51519549 16.3441431,4.10162268 C16.3441431,4.6997311 16.1236917,5.30137134 15.6864809,5.72355988 Z M46.3193023,13.369526 C46.2643211,13.4588487 46.1882215,13.520404 46.1035455,13.5573735 C46.0147793,13.5961289 45.9156825,13.6072916 45.8205849,13.5914082 C45.7259082,13.5755951 45.6359122,13.5330535 45.5645241,13.4680389 C45.4960999,13.4057235 45.4439962,13.323079 45.4206986,13.2218327 C44.8466986,10.7228667 43.7321338,8.8635989 41.3532332,7.66463244 C40.1830166,7.07481988 38.8373783,6.70007549 37.5635142,6.40129476 C37.1933359,6.31446159 36.8021867,6.25819976 36.4082753,6.20118817 C35.1737287,6.02250963 33.9302743,5.81788049 33.1254548,4.82871793 C32.6405109,4.23288195 32.4369865,3.47087207 32.5520583,2.77398134 C32.6604048,2.11782061 33.0472204,1.51616768 33.7503872,1.15561646 C35.5009793,0.258420976 37.6764316,1.13880451 39.4442474,1.88877037 C39.5753829,1.94440232 39.7041104,1.99901402 39.8300639,2.05170817 C41.5588501,2.7750489 43.1355945,3.72984244 44.4317073,5.09530524 C45.4601116,6.17857512 46.4129426,7.77999207 46.7966932,9.42740707 C47.1159598,10.797997 47.0408897,12.1971809 46.3193023,13.369526 Z" id="ðŸ–-Ink"></path>
                    </g>
                    <g id="facial-hair/Goatee-1" transform="translate(108.000000, 91.000000)" fill="#000000">
                        <path d="M25.7085406,0.757117079 C22.8220034,-0.53311702 17.6386432,0.592779013 15.7568526,1.04045856 C11.3820135,2.08160974 6.98095921,4.33159873 5.62087867,7.85662447 C4.08819257,11.8293296 7.14629716,13.0798959 7.59611008,12.8756325 C10.6246251,13.0873659 14.2311745,11.1979933 17.4047821,10.7103884 C19.9811483,10.3111344 22.6989733,9.96262447 25.1128566,8.60413076 C26.8752509,9.56620397 30.8558223,10.0862643 34.0683636,10.927531 C36.8043575,11.6436122 37.989756,13.1965811 40.5261503,12.8663595 C43.5660859,12.4707118 42.321768,6.12566553 38.9337659,3.55524305 C35.2257297,0.742177252 28.9543052,-0.398658609 25.7085406,0.757117079 Z M31.4239415,27.8871417 C28.8985506,28.4981663 28.7289575,23.0051679 28.44604,21.0645363 C28.2250119,19.5484257 26.9784467,15.6385665 23.8181326,15.8072638 C20.6578186,15.9759612 19.4698546,19.2517333 19.6301749,21.2891489 C19.7341385,22.6103626 20.9609903,29.3028318 17.0449836,30.1494948 C14.5483016,30.140737 11.6599474,29.9735654 9.03478455,29.4931728 C5.9450139,28.7987286 1.92727732,26.3673663 0.865995797,31.1556146 C0.484039943,32.8789077 14.0945954,37.9988267 20.1342352,38.4619612 C26.2593667,39.6937441 33.4258242,37.7996664 37.7867181,33.1496257 C38.7788205,32.0917424 41.5730321,27.7008012 41.7721447,26.6249495 C42.1904653,24.3646673 41.221936,22.9101563 38.4036979,23.7068245 C36.4128931,24.7618851 33.0480095,27.4941945 31.4239415,27.8871417 Z" id="ðŸ–-Ink"></path>
                    </g>
                    <g id="accessories/Glasses-5" transform="translate(60.000000, 62.000000)" fill="#000000">
                        <path d="M91.2439477,23.546428 C87.3644978,25.3923262 81.9521895,22.669703 79.3437455,19.8178565 C78.3943039,18.7794749 77.6617372,15.8086208 78.0269865,13.9244152 C79.016236,8.82163542 82.7333527,5.75909922 86.6575218,4.71331154 C92.0972301,3.2632548 97.5715765,6.9366638 96.9333594,11.2715112 C96.3282293,15.379835 95.4113577,21.3391647 91.2439477,23.546428 M64.8387181,13.7443713 C64.5277522,19.3053057 60.0075002,24.1726236 54.6050148,25.6147635 C45.9005507,28.0143291 41.5987247,21.9691912 39.6502111,15.4567049 C39.4566005,14.8095679 39.0013958,12.8344466 40.2227712,11.140245 C45.0263304,4.47606203 56.7135351,5.61199942 62.5508043,7.44155323 C64.2594373,9.05582033 64.9578831,11.3856667 64.8387181,13.7443713 M102.741678,4.79579981 C102.236067,-0.866010373 84.254579,1.30192407 82.1522625,1.76595245 C76.4147712,3.43308356 71.4592185,7.96866087 65.0444779,5.97489667 C58.3978698,-1.34510626 36.0152948,0.754130524 31.3231457,4.48295734 C30.4349667,4.13870293 29.3549865,4.32334384 28.2106419,4.64818924 C22.3340819,4.43852094 -4.49326528,6.43994658 0.994005634,13.8498438 C1.82686728,14.4206217 2.65895344,13.839884 2.68195924,12.664107 C31.2874738,2.46237809 28.5146287,12.0179916 31.9070794,10.901974 C32.4250976,11.0493291 32.9656047,11.1425435 33.4383867,11.24061 C36.0641497,12.075197 36.9556891,11.8172616 37.3015517,14.729378 C39.6778698,37.2159837 69.9873644,29.4549368 67.5014456,11.0102558 C69.9628076,10.8764359 72.1157885,9.82502975 74.7185459,10.8516638 C76.5256643,28.227062 90.6783669,28.9283399 94.9375417,22.9051647 C98.1493064,18.7245679 96.8757157,12.4156208 101.290503,9.12681644 C103.033257,10.5676795 103.145442,5.70470293 102.741678,4.79579981" id="ðŸ–-Ink"></path>
                    </g>
                </g>
            </g>
        </g>
    </g>
</svg>